<svg xmlns="http://www.w3.org/2000/svg" viewBox="0 0 32 32" id="Management"><path fill-rule="evenodd" d="m21.53 7.26 2-1.62c.57-.45 1.24-.62 1.49-.37l.83.83.83.83c.25.25.08.92-.37 1.49l-1.62 2.05a10.09 10.09 0 0 1 1.35 3.26l2.59.3c.73.09 1.32.44 1.32.79v2.36c0 .35-.59.7-1.32.79l-2.59.29a10.14 10.14 0 0 1-1.35 3.27l1.62 2c.45.57.62 1.24.37 1.49l-.83.83-.83.83c-.25.25-.92.08-1.49-.37l-2-1.62a10.05 10.05 0 0 1-3.27 1.35L18 28.68c-.09.73-.44 1.32-.79 1.32h-2.39c-.35 0-.7-.59-.79-1.32l-.3-2.59a10.18 10.18 0 0 1-3.26-1.35l-2.05 1.62c-.57.45-1.24.62-1.49.37l-.83-.83-.83-.83c-.25-.25-.08-.92.37-1.49l1.62-2a10.05 10.05 0 0 1-1.35-3.27L3.32 18c-.73-.12-1.32-.47-1.32-.82v-2.36c0-.35.59-.7 1.32-.79l2.59-.3a10.18 10.18 0 0 1 1.35-3.26L5.64 8.42c-.45-.57-.64-1.24-.37-1.49l.83-.83.83-.83c.25-.25.92-.08 1.49.37l2.05 1.62a10.09 10.09 0 0 1 3.26-1.35L14 3.32c.09-.73.44-1.32.79-1.32h2.36c.35 0 .7.59.79 1.32l.29 2.59a10.14 10.14 0 0 1 3.27 1.35ZM12.26 16a.44.44 0 0 1-.44.43.43.43 0 0 1-.43-.43A4.61 4.61 0 0 1 16 11.39a.43.43 0 0 1 .43.43.44.44 0 0 1-.43.44A3.72 3.72 0 0 0 12.26 16ZM16 9.5A6.5 6.5 0 1 1 9.5 16 6.5 6.5 0 0 1 16 9.5Z" data-name="1-" fill="#595bd4" class="color000000 svgShape"></path></svg>